<svg xmlns="http://www.w3.org/2000/svg" id="export" class="canvas" preserveAspectRatio="xMidYMid meet" viewBox="0 0 289 579" style="position: static; margin: auto; width: 404.6px; height: 810.6px;" width="98" height="388"><rect id="background" fill="#fff" pointer-events="all" width="98" height="388"/><g id="origin" transform="translate(4.4375, 4.4375) scale(1)"><g id="clusters" class="clusters"/><g id="edge-paths" class="edge-paths"><defs><marker id="arrowhead-vee" viewBox="0 0 10 10" refX="9" refY="5" markerUnits="strokeWidth" markerWidth="8" markerHeight="6" orient="auto" style="fill: rgb(0, 0, 0);"><path d="M 0 0 L 10 5 L 0 10 L 4 5 z" style="stroke-width: 1;"/></marker><marker id="arrowhead-vee-select" viewBox="0 0 10 10" refX="9" refY="5" markerUnits="strokeWidth" markerWidth="8" markerHeight="6" orient="auto" style="fill: rgb(238, 0, 0);"><path d="M 0 0 L 10 5 L 0 10 L 4 5 z" style="stroke-width: 1;"/></marker></defs><path id="edge-input_13&#10;0" class="edge-path" d="M44.375,23L44.375,24.666666666666668C44.375,26.333333333333332,44.375,29.666666666666668,44.375,35C44.375,40.333333333333336,44.375,47.666666666666664,44.375,55C44.375,62.333333333333336,44.375,69.66666666666667,44.375,75C44.375,80.33333333333333,44.375,83.66666666666667,44.375,85.33333333333333L44.375,87" style="stroke: rgb(0, 0, 0); stroke-width: 1px; fill: none; marker-end: url(&quot;#arrowhead-vee&quot;);"/><path id="edge-model_12/dense_24/MatMul;model_12/dense_24/BiasAdd&#10;5" class="edge-path" d="M44.375,144L44.375,147.66666666666666C44.375,151.33333333333334,44.375,158.66666666666666,44.375,166C44.375,173.33333333333334,44.375,180.66666666666666,44.375,184.33333333333334L44.375,188" style="stroke: rgb(0, 0, 0); stroke-width: 1px; fill: none; marker-end: url(&quot;#arrowhead-vee&quot;);"/><path id="edge-model_12/dense_24/Tanh&#10;6" class="edge-path" d="M44.375,211L44.375,214.66666666666666C44.375,218.33333333333334,44.375,225.66666666666666,44.375,233C44.375,240.33333333333334,44.375,247.66666666666666,44.375,251.33333333333334L44.375,255" style="stroke: rgb(0, 0, 0); stroke-width: 1px; fill: none; marker-end: url(&quot;#arrowhead-vee&quot;);"/><path id="edge-Identity&#10;7" class="edge-path" d="M44.375,312L44.375,315.6666666666667C44.375,319.3333333333333,44.375,326.6666666666667,44.375,334C44.375,341.3333333333333,44.375,348.6666666666667,44.375,352.3333333333333L44.375,356" style="stroke: rgb(0, 0, 0); stroke-width: 1px; fill: none; marker-end: url(&quot;#arrowhead-vee&quot;);"/></g><g id="edge-labels" class="edge-labels"><g class="edge-label" id="edge-label-edge-input_13&#10;0" transform="translate(58.4921875,55)" style="opacity: 1;"><g transform="translate(-9.1171875,-7)"><text style="font-family: -apple-system, BlinkMacSystemFont, &quot;Segoe WPC&quot;, &quot;Segoe UI&quot;, Ubuntu, &quot;Droid Sans&quot;, sans-serif, &quot;PingFang SC&quot;; font-size: 10px;"><tspan xml:space="preserve" dy="1em" x="1">1×6</tspan></text></g></g><g class="edge-label" id="edge-label-edge-model_12/dense_24/MatMul;model_12/dense_24/BiasAdd&#10;5" transform="translate(58.1875,166)" style="opacity: 1;"><g transform="translate(-8.8125,-7)"><text style="font-family: -apple-system, BlinkMacSystemFont, &quot;Segoe WPC&quot;, &quot;Segoe UI&quot;, Ubuntu, &quot;Droid Sans&quot;, sans-serif, &quot;PingFang SC&quot;; font-size: 10px;"><tspan xml:space="preserve" dy="1em" x="1">1×3</tspan></text></g></g><g class="edge-label" id="edge-label-edge-model_12/dense_24/Tanh&#10;6" transform="translate(58.1875,233)" style="opacity: 1;"><g transform="translate(-8.8125,-7)"><text style="font-family: -apple-system, BlinkMacSystemFont, &quot;Segoe WPC&quot;, &quot;Segoe UI&quot;, Ubuntu, &quot;Droid Sans&quot;, sans-serif, &quot;PingFang SC&quot;; font-size: 10px;"><tspan xml:space="preserve" dy="1em" x="1">1×3</tspan></text></g></g><g class="edge-label" id="edge-label-edge-Identity&#10;7" transform="translate(58.1875,334)" style="opacity: 1;"><g transform="translate(-8.8125,-7)"><text style="font-family: -apple-system, BlinkMacSystemFont, &quot;Segoe WPC&quot;, &quot;Segoe UI&quot;, Ubuntu, &quot;Droid Sans&quot;, sans-serif, &quot;PingFang SC&quot;; font-size: 10px;"><tspan xml:space="preserve" dy="1em" x="1">1×1</tspan></text></g></g></g><g id="nodes" class="nodes"><g id="node-id-0" class="node graph-node" transform="translate(44.375,115.5)" style="opacity: 1;"><g transform="translate(-44.375,-28.5)"><g class="node-item node-item-type node-item-type-layer" transform="translate(0,0)"><path d="M5,0h78.75a5,5 0 0 1 5,5v18a0,0 0 0 1 0,0h-88.75a0,0 0 0 1 0,0v-18a5,5 0 0 1 5,-5z" style="stroke: rgb(0, 0, 0); fill: rgb(51, 85, 136); stroke-width: 0;"/><text x="6" y="16" style="font-family: -apple-system, BlinkMacSystemFont, &quot;Segoe WPC&quot;, &quot;Segoe UI&quot;, Ubuntu, &quot;Droid Sans&quot;, sans-serif, &quot;PingFang SC&quot;; font-size: 11px; text-rendering: geometricprecision; fill: rgb(255, 255, 255);">FullyConnected</text><title>0</title></g><g class="node-attribute" transform="translate(0,23)"><path d="M0,0h88.75a0,0 0 0 1 0,0v29a5,5 0 0 1 -5,5h-78.75a5,5 0 0 1 -5,-5v-29a0,0 0 0 1 0,0z" style="stroke: rgb(0, 0, 0); fill: rgb(255, 255, 255); stroke-width: 0;"/><text id="initializer-model_12/dense_24/MatMul&#10;3" xml:space="preserve" x="6" y="14" style="font-family: -apple-system, BlinkMacSystemFont, &quot;Segoe WPC&quot;, &quot;Segoe UI&quot;, Ubuntu, &quot;Droid Sans&quot;, sans-serif, &quot;PingFang SC&quot;; font-size: 9px; font-weight: normal; text-rendering: geometricprecision;"><title>float32[3,6]</title><tspan style="font-weight: bold;">weights</tspan><tspan>〈3×6〉</tspan></text><text id="initializer-model_12/dense_24/BiasAdd/ReadVariableOp/resource&#10;1" xml:space="preserve" x="6" y="28" style="font-family: -apple-system, BlinkMacSystemFont, &quot;Segoe WPC&quot;, &quot;Segoe UI&quot;, Ubuntu, &quot;Droid Sans&quot;, sans-serif, &quot;PingFang SC&quot;; font-size: 9px; font-weight: normal; text-rendering: geometricprecision;"><title>float32[3]</title><tspan style="font-weight: bold;">bias</tspan><tspan>〈3〉</tspan></text><line class="node" x1="0" x2="88.75" y1="0" y2="0" style="stroke: rgb(51, 51, 51); fill: none; stroke-width: 1px;"/></g><path class="node border" d="M5,0h78.75a5,5 0 0 1 5,5v47a5,5 0 0 1 -5,5h-78.75a5,5 0 0 1 -5,-5v-47a5,5 0 0 1 5,-5z" style="stroke: rgb(51, 51, 51); fill: none; stroke-width: 1px;"/></g></g><g id="node-id-1" class="node graph-node" transform="translate(44.375,199.5)" style="opacity: 1;"><g transform="translate(-18.7890625,-11.5)"><g class="node-item node-item-type node-item-type-activation" transform="translate(0,0)"><path d="M5,0h27.578125a5,5 0 0 1 5,5v13a5,5 0 0 1 -5,5h-27.578125a5,5 0 0 1 -5,-5v-13a5,5 0 0 1 5,-5z" style="stroke: rgb(0, 0, 0); fill: rgb(112, 41, 33); stroke-width: 0;"/><text x="6" y="16" style="font-family: -apple-system, BlinkMacSystemFont, &quot;Segoe WPC&quot;, &quot;Segoe UI&quot;, Ubuntu, &quot;Droid Sans&quot;, sans-serif, &quot;PingFang SC&quot;; font-size: 11px; text-rendering: geometricprecision; fill: rgb(255, 255, 255);">Tanh</text><title>1</title></g><path class="node border" d="M5,0h27.578125a5,5 0 0 1 5,5v13a5,5 0 0 1 -5,5h-27.578125a5,5 0 0 1 -5,-5v-13a5,5 0 0 1 5,-5z" style="stroke: rgb(51, 51, 51); fill: none; stroke-width: 1px;"/></g></g><g id="node-id-2" class="node graph-node" transform="translate(44.375,283.5)" style="opacity: 1;"><g transform="translate(-44.375,-28.5)"><g class="node-item node-item-type node-item-type-layer" transform="translate(0,0)"><path d="M5,0h78.75a5,5 0 0 1 5,5v18a0,0 0 0 1 0,0h-88.75a0,0 0 0 1 0,0v-18a5,5 0 0 1 5,-5z" style="stroke: rgb(0, 0, 0); fill: rgb(51, 85, 136); stroke-width: 0;"/><text x="6" y="16" style="font-family: -apple-system, BlinkMacSystemFont, &quot;Segoe WPC&quot;, &quot;Segoe UI&quot;, Ubuntu, &quot;Droid Sans&quot;, sans-serif, &quot;PingFang SC&quot;; font-size: 11px; text-rendering: geometricprecision; fill: rgb(255, 255, 255);">FullyConnected</text><title>2</title></g><g class="node-attribute" transform="translate(0,23)"><path d="M0,0h88.75a0,0 0 0 1 0,0v29a5,5 0 0 1 -5,5h-78.75a5,5 0 0 1 -5,-5v-29a0,0 0 0 1 0,0z" style="stroke: rgb(0, 0, 0); fill: rgb(255, 255, 255); stroke-width: 0;"/><text id="initializer-model_12/dense_25/MatMul&#10;4" xml:space="preserve" x="6" y="14" style="font-family: -apple-system, BlinkMacSystemFont, &quot;Segoe WPC&quot;, &quot;Segoe UI&quot;, Ubuntu, &quot;Droid Sans&quot;, sans-serif, &quot;PingFang SC&quot;; font-size: 9px; font-weight: normal; text-rendering: geometricprecision;"><title>float32[1,3]</title><tspan style="font-weight: bold;">weights</tspan><tspan>〈1×3〉</tspan></text><text id="initializer-model_12/dense_25/BiasAdd/ReadVariableOp/resource&#10;2" xml:space="preserve" x="6" y="28" style="font-family: -apple-system, BlinkMacSystemFont, &quot;Segoe WPC&quot;, &quot;Segoe UI&quot;, Ubuntu, &quot;Droid Sans&quot;, sans-serif, &quot;PingFang SC&quot;; font-size: 9px; font-weight: normal; text-rendering: geometricprecision;"><title>float32[1]</title><tspan style="font-weight: bold;">bias</tspan><tspan>〈1〉</tspan></text><line class="node" x1="0" x2="88.75" y1="0" y2="0" style="stroke: rgb(51, 51, 51); fill: none; stroke-width: 1px;"/></g><path class="node border" d="M5,0h78.75a5,5 0 0 1 5,5v47a5,5 0 0 1 -5,5h-78.75a5,5 0 0 1 -5,-5v-47a5,5 0 0 1 5,-5z" style="stroke: rgb(51, 51, 51); fill: none; stroke-width: 1px;"/></g></g><g id="input-name-input_13&#10;0" class="node graph-input" transform="translate(44.375,11.5)" style="opacity: 1;"><g transform="translate(-32.375,-11.5)"><g class="node-item graph-item-input" transform="translate(0,0)"><path d="M5,0h54.75a5,5 0 0 1 5,5v13a5,5 0 0 1 -5,5h-54.75a5,5 0 0 1 -5,-5v-13a5,5 0 0 1 5,-5z" style="stroke: rgb(0, 0, 0); fill: rgb(238, 238, 238); stroke-width: 0;"/><text x="6" y="16" style="font-family: -apple-system, BlinkMacSystemFont, &quot;Segoe WPC&quot;, &quot;Segoe UI&quot;, Ubuntu, &quot;Droid Sans&quot;, sans-serif, &quot;PingFang SC&quot;; font-size: 11px; text-rendering: geometricprecision;">input_13
0</text><title>float32[1,6]</title></g><path class="node border" d="M5,0h54.75a5,5 0 0 1 5,5v13a5,5 0 0 1 -5,5h-54.75a5,5 0 0 1 -5,-5v-13a5,5 0 0 1 5,-5z" style="stroke: rgb(51, 51, 51); fill: none; stroke-width: 1px;"/></g></g><g class="node" transform="translate(44.375,367.5)" style="opacity: 1;"><g transform="translate(-29.921875,-11.5)"><g class="node-item graph-item-output" transform="translate(0,0)"><path d="M5,0h49.84375a5,5 0 0 1 5,5v13a5,5 0 0 1 -5,5h-49.84375a5,5 0 0 1 -5,-5v-13a5,5 0 0 1 5,-5z" style="stroke: rgb(0, 0, 0); fill: rgb(238, 238, 238); stroke-width: 0;"/><text x="6" y="16" style="font-family: -apple-system, BlinkMacSystemFont, &quot;Segoe WPC&quot;, &quot;Segoe UI&quot;, Ubuntu, &quot;Droid Sans&quot;, sans-serif, &quot;PingFang SC&quot;; font-size: 11px; text-rendering: geometricprecision;">Identity
7</text><title>float32[1,1]</title></g><path class="node border" d="M5,0h49.84375a5,5 0 0 1 5,5v13a5,5 0 0 1 -5,5h-49.84375a5,5 0 0 1 -5,-5v-13a5,5 0 0 1 5,-5z" style="stroke: rgb(51, 51, 51); fill: none; stroke-width: 1px;"/></g></g></g></g></svg>